<svg version="1.1" id="Layer_1" xmlns="http://www.w3.org/2000/svg" xmlns:xlink="http://www.w3.org/1999/xlink" x="0px" y="0px"
	 width="100%" viewBox="0 0 1024 963" enable-background="new 0 0 1024 963" xml:space="preserve">
<path fill="#FEFFFE" opacity="1.000000" stroke="none" 
	d="
M1025.000000,2.000024 
	C1025.000000,322.622375 1025.000000,643.244751 1025.000000,963.933594 
	C683.758118,963.933594 342.516174,963.933594 1.000000,963.933594 
	C1.000000,643.635803 1.000000,323.271545 1.235832,2.362858 
	C1.647777,1.545634 1.823888,1.272817 2.000000,1.000000 
	C342.364258,1.000000 682.728516,1.000000 1023.624329,1.239599 
	C1024.437256,1.652815 1024.718628,1.826431 1025.000000,2.000024 
M900.533203,108.465904 
	C900.037170,108.417259 899.541199,108.325951 899.045166,108.326004 
	C818.600708,108.335274 738.156189,108.348740 657.711731,108.387367 
	C656.406738,108.387993 655.101929,108.699287 653.134827,108.999992 
	C653.028687,109.394104 652.922485,109.788216 652.575623,110.475822 
	C652.575623,110.475822 652.676697,110.841705 652.267456,111.578598 
	C652.215332,112.241615 652.117432,112.904648 652.117676,113.567657 
	C652.155334,213.177460 652.226929,312.787292 652.154541,412.397003 
	C652.151367,416.762573 653.735901,417.570343 657.657959,417.565308 
	C738.278564,417.461945 818.899231,417.444550 899.519714,417.551605 
	C903.572876,417.556976 904.573730,416.244720 904.570984,412.426392 
	C904.500061,312.650085 904.531128,212.873718 904.473145,113.097420 
	C904.472351,111.712471 903.558838,110.328049 902.505981,108.724846 
	C902.107727,108.762154 901.709534,108.799454 900.533203,108.465904 
M577.512573,739.067383 
	C588.709106,776.140259 570.464539,811.998291 533.862549,824.518188 
	C530.681702,825.606262 529.873840,827.200500 529.894714,830.277466 
	C530.006531,846.774536 529.938049,863.272705 529.967651,879.770447 
	C529.970520,881.367493 530.219421,882.964050 530.370911,884.760132 
	C533.017700,884.760132 535.181396,884.960693 537.297302,884.727539 
	C550.855530,883.233337 564.479980,882.129578 577.941589,880.004517 
	C650.564514,868.540222 716.442261,841.226013 774.494202,795.694397 
	C811.870667,766.379150 841.978882,730.927979 863.864868,688.772217 
	C890.029724,638.374817 902.423157,584.355408 903.918823,527.813416 
	C904.588440,502.500702 903.949524,477.155457 904.208313,451.828094 
	C904.258362,446.932892 902.739990,445.768677 898.012695,445.777405 
	C818.690186,445.923706 739.367371,445.890686 660.044617,445.898621 
	C652.696289,445.899353 652.815247,445.905182 652.664978,453.111786 
	C652.179138,476.413666 653.181519,499.884613 650.687317,522.974670 
	C646.810547,558.865295 630.645386,588.980957 601.390137,611.144165 
	C581.679932,626.076172 559.180359,634.331787 534.816040,637.589050 
	C531.017395,638.096924 529.817078,639.312622 529.865051,643.131592 
	C530.059692,658.626953 530.046387,674.127625 529.859131,689.623230 
	C529.815308,693.245789 531.047791,694.920715 534.465698,696.053833 
	C555.648804,703.076172 569.769409,717.360474 577.512573,739.067383 
M376.829895,529.752441 
	C375.947601,521.489624 374.495026,513.240112 374.300781,504.961151 
	C373.886566,487.306152 374.132385,469.635773 374.085297,451.971771 
	C374.080170,450.050171 373.928009,448.128967 373.848083,446.300110 
	C289.804810,446.300110 206.413864,446.300110 123.157204,446.300110 
	C122.923424,447.048767 122.734009,447.367096 122.738159,447.682892 
	C123.258789,487.305237 120.838646,526.985535 125.833832,566.514648 
	C132.092285,616.040649 146.772125,662.704102 172.648163,705.535767 
	C211.026733,769.062378 266.025208,813.727783 332.573608,844.952820 
	C375.123688,864.917664 419.922180,877.191895 466.582397,882.626160 
	C476.433411,883.773438 486.353577,884.327087 495.930206,885.128174 
	C496.451050,884.027588 496.709167,883.736023 496.710297,883.443481 
	C496.780640,865.116821 496.891205,846.789673 496.743988,828.464539 
	C496.734161,827.237366 494.990509,825.540344 493.652130,824.898987 
	C489.764801,823.036377 485.409302,822.057861 481.704407,819.922424 
	C456.644104,805.478271 444.310822,783.374329 446.510101,754.798462 
	C448.768127,725.459290 464.959991,705.538025 492.963684,695.796265 
	C496.090424,694.708618 497.009003,693.306946 496.977570,690.152161 
	C496.833191,675.655762 496.924011,661.156982 496.931213,646.659058 
	C496.935394,638.219238 496.934082,638.233154 488.298218,637.026428 
	C486.319336,636.749878 484.349640,636.386658 482.391388,635.986511 
	C425.028320,624.264832 387.846252,585.826355 376.829895,529.752441 
M296.500122,108.474197 
	C238.591965,108.474197 180.683823,108.474197 122.644836,108.474197 
	C122.644836,211.775253 122.644836,314.191010 122.644836,417.041779 
	C124.503609,417.160950 126.119858,417.354950 127.736137,417.355255 
	C208.049820,417.370422 288.363525,417.341461 368.677094,417.446960 
	C372.901825,417.452484 374.457672,416.478668 374.451843,411.912415 
	C374.324829,312.437683 374.352966,212.962769 374.338104,113.487892 
	C374.337891,112.027740 374.170868,110.567612 374.042877,108.472885 
	C348.362946,108.472885 322.931549,108.472885 296.500122,108.474197 
z"/>
<path fill="#D4D4D4" opacity="1.000000" stroke="none" 
	d="
M1.500000,1.000000 
	C1.823888,1.272817 1.647777,1.545634 1.235832,1.909226 
	C1.000000,1.666667 1.000000,1.333333 1.500000,1.000000 
z"/>
<path fill="#D4D4D4" opacity="1.000000" stroke="none" 
	d="
M1025.000000,1.500024 
	C1024.718628,1.826431 1024.437256,1.652815 1024.077881,1.239599 
	C1024.333374,1.000000 1024.666626,1.000000 1025.000000,1.500024 
z"/>
<path fill="#E99B19" opacity="1.000000" stroke="none" 
	d="
M577.364929,738.699951 
	C569.769409,717.360474 555.648804,703.076172 534.465698,696.053833 
	C531.047791,694.920715 529.815308,693.245789 529.859131,689.623230 
	C530.046387,674.127625 530.059692,658.626953 529.865051,643.131592 
	C529.817078,639.312622 531.017395,638.096924 534.816040,637.589050 
	C559.180359,634.331787 581.679932,626.076172 601.390137,611.144165 
	C630.645386,588.980957 646.810547,558.865295 650.687317,522.974670 
	C653.181519,499.884613 652.179138,476.413666 652.664978,453.111786 
	C652.815247,445.905182 652.696289,445.899353 660.044617,445.898621 
	C739.367371,445.890686 818.690186,445.923706 898.012695,445.777405 
	C902.739990,445.768677 904.258362,446.932892 904.208313,451.828094 
	C903.949524,477.155457 904.588440,502.500702 903.918823,527.813416 
	C902.423157,584.355408 890.029724,638.374817 863.864868,688.772217 
	C841.978882,730.927979 811.870667,766.379150 774.494202,795.694397 
	C716.442261,841.226013 650.564514,868.540222 577.941589,880.004517 
	C564.479980,882.129578 550.855530,883.233337 537.297302,884.727539 
	C535.181396,884.960693 533.017700,884.760132 530.370911,884.760132 
	C530.219421,882.964050 529.970520,881.367493 529.967651,879.770447 
	C529.938049,863.272705 530.006531,846.774536 529.894714,830.277466 
	C529.873840,827.200500 530.681702,825.606262 533.862549,824.518188 
	C570.464539,811.998291 588.709106,776.140259 577.364929,738.699951 
z"/>
<path fill="#049F62" opacity="1.000000" stroke="none" 
	d="
M376.913788,530.170410 
	C387.846252,585.826355 425.028320,624.264832 482.391388,635.986511 
	C484.349640,636.386658 486.319336,636.749878 488.298218,637.026428 
	C496.934082,638.233154 496.935394,638.219238 496.931213,646.659058 
	C496.924011,661.156982 496.833191,675.655762 496.977570,690.152161 
	C497.009003,693.306946 496.090424,694.708618 492.963684,695.796265 
	C464.959991,705.538025 448.768127,725.459290 446.510101,754.798462 
	C444.310822,783.374329 456.644104,805.478271 481.704407,819.922424 
	C485.409302,822.057861 489.764801,823.036377 493.652130,824.898987 
	C494.990509,825.540344 496.734161,827.237366 496.743988,828.464539 
	C496.891205,846.789673 496.780640,865.116821 496.710297,883.443481 
	C496.709167,883.736023 496.451050,884.027588 495.930206,885.128174 
	C486.353577,884.327087 476.433411,883.773438 466.582397,882.626160 
	C419.922180,877.191895 375.123688,864.917664 332.573608,844.952820 
	C266.025208,813.727783 211.026733,769.062378 172.648163,705.535767 
	C146.772125,662.704102 132.092285,616.040649 125.833832,566.514648 
	C120.838646,526.985535 123.258789,487.305237 122.738159,447.682892 
	C122.734009,447.367096 122.923424,447.048767 123.157204,446.300110 
	C206.413864,446.300110 289.804810,446.300110 373.848083,446.300110 
	C373.928009,448.128967 374.080170,450.050171 374.085297,451.971771 
	C374.132385,469.635773 373.886566,487.306152 374.300781,504.961151 
	C374.495026,513.240112 375.947601,521.489624 376.913788,530.170410 
z"/>
<path fill="#E05518" opacity="1.000000" stroke="none" 
	d="
M652.676697,110.841705 
	C652.676697,110.841705 652.575623,110.475822 653.177979,110.291473 
	C723.535156,110.083870 793.289917,110.060608 863.224731,110.273270 
	C864.257446,110.353142 865.110107,110.197090 866.396606,110.034485 
	C868.565857,110.032326 870.301392,110.036728 872.314270,110.313805 
	C875.380188,110.404297 878.168701,110.222099 881.411499,110.032959 
	C884.592102,110.029976 887.318359,110.033951 890.302612,110.303604 
	C892.683167,110.398453 894.805786,110.227608 897.336243,110.047508 
	C898.831787,110.052490 899.919556,110.066719 901.070312,110.489929 
	C901.431213,113.018333 901.988831,115.137650 901.989746,117.257195 
	C902.030029,214.399719 902.023071,311.542267 902.016296,408.684814 
	C902.015869,415.008148 901.996582,415.021515 895.528564,415.021912 
	C817.381287,415.026825 739.234009,415.028107 661.086731,415.028198 
	C653.984863,415.028198 653.980591,415.021210 653.980225,407.798401 
	C653.975464,310.989105 653.980530,214.179810 653.914368,117.370552 
	C653.912903,115.193985 653.107239,113.017975 652.676697,110.841705 
z"/>
<path fill="#268AB7" opacity="1.000000" stroke="none" 
	d="
M297.000153,108.473541 
	C322.931549,108.472885 348.362946,108.472885 374.042877,108.472885 
	C374.170868,110.567612 374.337891,112.027740 374.338104,113.487892 
	C374.352966,212.962769 374.324829,312.437683 374.451843,411.912415 
	C374.457672,416.478668 372.901825,417.452484 368.677094,417.446960 
	C288.363525,417.341461 208.049820,417.370422 127.736137,417.355255 
	C126.119858,417.354950 124.503609,417.160950 122.644836,417.041779 
	C122.644836,314.191010 122.644836,211.775253 122.644836,108.474197 
	C180.683823,108.474197 238.591965,108.474197 297.000153,108.473541 
M306.500000,415.007294 
	C326.327423,415.008728 346.155212,414.948273 365.982025,415.059448 
	C370.382660,415.084106 372.098785,413.636871 372.093292,408.944061 
	C371.979034,311.638580 372.010529,214.332947 372.003937,117.027336 
	C372.003479,110.256752 371.740051,110.022087 364.935272,110.021973 
	C287.290710,110.020676 209.646164,110.021111 132.001617,110.023087 
	C124.993553,110.023262 124.986664,110.029701 124.986641,117.326447 
	C124.986290,213.965591 124.987473,310.604736 124.990234,407.243866 
	C124.990456,415.011963 124.997162,415.017151 132.549286,415.016907 
	C190.199524,415.014923 247.849762,415.010742 306.500000,415.007294 
z"/>
<path fill="#C96B41" opacity="1.000000" stroke="none" 
	d="
M652.472046,111.210152 
	C653.107239,113.017975 653.912903,115.193985 653.914368,117.370552 
	C653.980530,214.179810 653.975464,310.989105 653.980225,407.798401 
	C653.980591,415.021210 653.984863,415.028198 661.086731,415.028198 
	C739.234009,415.028107 817.381287,415.026825 895.528564,415.021912 
	C901.996582,415.021515 902.015869,415.008148 902.016296,408.684814 
	C902.023071,311.542267 902.030029,214.399719 901.989746,117.257195 
	C901.988831,115.137650 901.431213,113.018333 901.381104,110.448441 
	C902.109741,109.646446 902.590515,109.294922 903.071289,108.943390 
	C903.558838,110.328049 904.472351,111.712471 904.473145,113.097420 
	C904.531128,212.873718 904.500061,312.650085 904.570984,412.426392 
	C904.573730,416.244720 903.572876,417.556976 899.519714,417.551605 
	C818.899231,417.444550 738.278564,417.461945 657.657959,417.565308 
	C653.735901,417.570343 652.151367,416.762573 652.154541,412.397003 
	C652.226929,312.787292 652.155334,213.177460 652.117676,113.567657 
	C652.117432,112.904648 652.215332,112.241615 652.472046,111.210152 
z"/>
<path fill="#AB4D20" opacity="1.000000" stroke="none" 
	d="
M902.788635,108.834122 
	C902.590515,109.294922 902.109741,109.646446 901.318115,110.039459 
	C899.919556,110.066719 898.831787,110.052490 896.908813,110.036911 
	C894.063965,110.036354 892.054321,110.037140 890.044678,110.037926 
	C887.318359,110.033951 884.592102,110.029976 880.967285,110.026489 
	C877.391479,110.031685 874.714233,110.036407 872.036926,110.041122 
	C870.301392,110.036728 868.565857,110.032326 866.032166,110.027512 
	C864.504211,110.030525 863.774475,110.033936 863.044678,110.037346 
	C793.289917,110.060608 723.535156,110.083870 653.298340,110.144730 
	C652.922485,109.788216 653.028687,109.394104 653.942383,109.027176 
	C735.946045,109.076942 817.142151,109.100540 898.338196,109.110237 
	C899.329224,109.110352 900.320251,108.931870 901.311279,108.836761 
	C901.709534,108.799454 902.107727,108.762154 902.788635,108.834122 
z"/>
<path fill="#C96B41" opacity="1.000000" stroke="none" 
	d="
M900.922241,108.651329 
	C900.320251,108.931870 899.329224,109.110352 898.338196,109.110237 
	C817.142151,109.100540 735.946045,109.076942 654.273499,108.959991 
	C655.101929,108.699287 656.406738,108.387993 657.711731,108.387367 
	C738.156189,108.348740 818.600708,108.335274 899.045166,108.326004 
	C899.541199,108.325951 900.037170,108.417259 900.922241,108.651329 
z"/>
<path fill="#C96B41" opacity="1.000000" stroke="none" 
	d="
M872.314270,110.313812 
	C874.714233,110.036407 877.391479,110.031685 880.513062,110.033440 
	C878.168701,110.222099 875.380188,110.404297 872.314270,110.313812 
z"/>
<path fill="#C96B41" opacity="1.000000" stroke="none" 
	d="
M890.302612,110.303604 
	C892.054321,110.037140 894.063965,110.036354 896.501038,110.046165 
	C894.805786,110.227608 892.683167,110.398453 890.302612,110.303604 
z"/>
<path fill="#C96B41" opacity="1.000000" stroke="none" 
	d="
M863.224731,110.273270 
	C863.774475,110.033936 864.504211,110.030525 865.598389,110.034073 
	C865.110107,110.197090 864.257446,110.353142 863.224731,110.273270 
z"/>
<path fill="#0191DC" opacity="1.000000" stroke="none" 
	d="
M306.000000,415.007294 
	C247.849762,415.010742 190.199524,415.014923 132.549286,415.016907 
	C124.997162,415.017151 124.990456,415.011963 124.990234,407.243866 
	C124.987473,310.604736 124.986290,213.965591 124.986641,117.326447 
	C124.986664,110.029701 124.993553,110.023262 132.001617,110.023087 
	C209.646164,110.021111 287.290710,110.020676 364.935272,110.021973 
	C371.740051,110.022087 372.003479,110.256752 372.003937,117.027336 
	C372.010529,214.332947 371.979034,311.638580 372.093292,408.944061 
	C372.098785,413.636871 370.382660,415.084106 365.982025,415.059448 
	C346.155212,414.948273 326.327423,415.008728 306.000000,415.007294 
z"/>
</svg>