<svg version="1.1" id="Layer_1" xmlns="http://www.w3.org/2000/svg" xmlns:xlink="http://www.w3.org/1999/xlink" x="0px" y="0px"
	 width="100%" viewBox="0 0 160 150" enable-background="new 0 0 160 150" xml:space="preserve">
<path fill="#010101" opacity="1.000000" stroke="none" 
	d="
M89.000000,151.000000 
	C59.333336,151.000000 30.166674,151.000000 1.000008,151.000000 
	C1.000005,101.000008 1.000005,51.000019 1.000003,1.000021 
	C54.333317,1.000014 107.666634,1.000014 160.999969,1.000007 
	C160.999969,50.999981 160.999969,100.999962 160.999985,150.999969 
	C137.166672,151.000000 113.333336,151.000000 89.000000,151.000000 
M20.174826,18.063398 
	C20.174826,18.063398 20.040384,17.965651 19.470379,18.587173 
	C19.383087,34.406723 19.295795,50.226273 19.157961,66.855316 
	C19.177650,68.206116 19.197340,69.556915 18.965845,71.644112 
	C19.012663,72.160194 19.059479,72.676277 18.990032,74.042259 
	C19.314096,77.806923 19.272852,81.647720 20.038237,85.320419 
	C21.633787,92.976685 22.304848,101.232285 25.760807,108.016464 
	C35.389107,126.917175 52.297161,135.979553 72.771881,138.869492 
	C74.677773,139.138519 78.580925,137.632141 78.562035,137.046753 
	C78.474609,134.337738 78.150330,130.832520 76.419426,129.120026 
	C69.055832,121.834717 69.115593,116.773849 76.684601,109.879608 
	C78.337433,108.374115 78.567268,104.948776 78.705315,102.367653 
	C78.743958,101.644897 76.154694,100.702911 74.706329,99.993263 
	C69.197784,97.294250 62.996063,95.103630 61.690571,88.133163 
	C60.646164,82.556732 60.472740,76.817162 60.075554,70.567162 
	C60.008896,70.376968 59.942238,70.186783 59.921871,69.079567 
	C59.732975,67.911659 59.544083,66.743752 59.694962,64.753471 
	C59.694962,49.229843 59.694962,33.706215 59.694962,17.828165 
	C54.739323,17.828165 50.372257,17.828165 45.533367,17.107594 
	C38.203323,17.070126 30.872768,16.979605 23.543758,17.049852 
	C22.385399,17.060955 21.233999,17.798054 20.174826,18.063398 
M101.990234,66.743538 
	C102.050293,68.163261 102.110352,69.582993 102.026672,71.919647 
	C102.017853,74.749336 102.064377,77.580475 101.989815,80.408432 
	C101.768372,88.805901 95.831635,96.811386 88.024902,99.525055 
	C86.128258,100.184341 82.876968,99.213974 83.135345,102.936409 
	C83.336937,105.840530 82.240585,108.693840 86.140999,110.912727 
	C92.347832,114.443703 93.055519,123.196884 87.364098,126.787460 
	C82.175186,130.061005 82.879425,134.073624 83.205681,138.616318 
	C115.408730,138.864624 146.975342,113.130913 142.194824,71.176620 
	C142.115707,69.327065 142.036591,67.477516 142.286499,64.790733 
	C142.286499,49.260727 142.286499,33.730721 142.286499,17.677090 
	C129.202515,17.677090 116.810524,17.635557 104.420631,17.777403 
	C103.654663,17.786171 102.905235,19.238882 102.006248,20.945637 
	C102.063728,35.933342 102.121208,50.921047 101.990234,66.743538 
z"/>
<path fill="#059F63" opacity="1.000000" stroke="none" 
	d="
M59.912746,71.150002 
	C60.472740,76.817162 60.646164,82.556732 61.690571,88.133163 
	C62.996063,95.103630 69.197784,97.294250 74.706329,99.993263 
	C76.154694,100.702911 78.743958,101.644897 78.705315,102.367653 
	C78.567268,104.948776 78.337433,108.374115 76.684601,109.879608 
	C69.115593,116.773849 69.055832,121.834717 76.419426,129.120026 
	C78.150330,130.832520 78.474609,134.337738 78.562035,137.046753 
	C78.580925,137.632141 74.677773,139.138519 72.771881,138.869492 
	C52.297161,135.979553 35.389107,126.917175 25.760807,108.016464 
	C22.304848,101.232285 21.633787,92.976685 20.038237,85.320419 
	C19.272852,81.647720 19.314096,77.806923 19.326586,73.457588 
	C19.798418,72.273018 19.933697,71.673119 20.508484,70.910156 
	C33.657932,70.768044 46.367867,70.789001 59.266327,70.944611 
	C59.454845,71.079262 59.912746,71.150002 59.912746,71.150002 
z"/>
<path fill="#E89B19" opacity="1.000000" stroke="none" 
	d="
M142.003494,72.086136 
	C146.975342,113.130913 115.408730,138.864624 83.205681,138.616318 
	C82.879425,134.073624 82.175186,130.061005 87.364098,126.787460 
	C93.055519,123.196884 92.347832,114.443703 86.140999,110.912727 
	C82.240585,108.693840 83.336937,105.840530 83.135345,102.936409 
	C82.876968,99.213974 86.128258,100.184341 88.024902,99.525055 
	C95.831635,96.811386 101.768372,88.805901 101.989815,80.408432 
	C102.064377,77.580475 102.017853,74.749336 102.554550,71.415314 
	C114.697304,70.878166 126.312424,70.803139 137.926743,70.869133 
	C139.287918,70.876869 140.644684,71.661606 142.003494,72.086136 
z"/>
<path fill="#0390DA" opacity="1.000000" stroke="none" 
	d="
M46.005196,17.828165 
	C50.372257,17.828165 54.739323,17.828165 59.694962,17.828165 
	C59.694962,33.706215 59.694962,49.229843 59.142464,65.348312 
	C45.800102,65.914185 33.010235,65.885216 20.190855,65.396599 
	C20.121021,49.279846 20.080702,33.622749 20.040384,17.965651 
	C20.040384,17.965651 20.174826,18.063398 20.588272,18.050915 
	C29.336210,17.968342 37.670704,17.898252 46.005196,17.828165 
z"/>
<path fill="#E05519" opacity="1.000000" stroke="none" 
	d="
M102.148109,20.019779 
	C102.905235,19.238882 103.654663,17.786171 104.420631,17.777403 
	C116.810524,17.635557 129.202515,17.677090 142.286499,17.677090 
	C142.286499,33.730721 142.286499,49.260727 141.673019,65.339615 
	C128.409332,65.858521 115.759132,65.828537 103.075066,65.343460 
	C103.025841,51.850994 103.044685,38.813400 102.957695,25.776516 
	C102.944878,23.855888 102.430450,21.938608 102.148109,20.019779 
z"/>
<path fill="#F6FCFC" opacity="1.000000" stroke="none" 
	d="
M20.220371,65.856255 
	C33.010235,65.885216 45.800102,65.914185 58.972580,65.759491 
	C59.544083,66.743752 59.732975,67.911659 59.749725,69.657089 
	C59.419056,70.433403 59.252464,70.625183 59.077805,70.809959 
	C46.367867,70.789001 33.657932,70.768044 20.310581,70.790939 
	C19.673168,70.834793 19.217031,70.907715 19.217031,70.907715 
	C19.197340,69.556915 19.177650,68.206116 19.445232,66.451538 
	C19.895124,65.983917 20.057749,65.920090 20.220371,65.856255 
z"/>
<path fill="#FDF6E9" opacity="1.000000" stroke="none" 
	d="
M103.108932,65.798553 
	C115.759132,65.828537 128.409332,65.858521 141.508514,65.758232 
	C142.036591,67.477516 142.115707,69.327065 142.099152,71.631378 
	C140.644684,71.661606 139.287918,70.876869 137.926743,70.869133 
	C126.312424,70.803139 114.697304,70.878166 102.626419,70.956848 
	C102.110352,69.582993 102.050293,68.163261 102.320175,66.327042 
	C102.650108,65.910538 103.108932,65.798546 103.108932,65.798553 
z"/>
<path fill="#77998D" opacity="1.000000" stroke="none" 
	d="
M20.190855,65.396599 
	C20.057749,65.920090 19.895124,65.983917 19.470505,66.046783 
	C19.295795,50.226273 19.383087,34.406723 19.755383,18.276413 
	C20.080702,33.622749 20.121021,49.279846 20.190855,65.396599 
z"/>
<path fill="#BE8563" opacity="1.000000" stroke="none" 
	d="
M103.075066,65.343452 
	C103.108932,65.798546 102.650108,65.910538 102.414398,65.909645 
	C102.121208,50.921047 102.063728,35.933342 102.077179,20.482708 
	C102.430450,21.938608 102.944878,23.855888 102.957695,25.776516 
	C103.044685,38.813400 103.025841,51.850994 103.075066,65.343452 
z"/>
<path fill="#B7D1D7" opacity="1.000000" stroke="none" 
	d="
M45.769279,17.467880 
	C37.670704,17.898252 29.336210,17.968342 20.540550,18.118958 
	C21.233999,17.798054 22.385399,17.060955 23.543758,17.049852 
	C30.872768,16.979605 38.203323,17.070126 45.769279,17.467880 
z"/>
<path fill="#77998D" opacity="1.000000" stroke="none" 
	d="
M19.091438,71.275909 
	C19.217031,70.907715 19.673168,70.834793 19.871071,70.954010 
	C19.933697,71.673119 19.798418,72.273018 19.384718,73.032639 
	C19.059479,72.676277 19.012663,72.160194 19.091438,71.275909 
z"/>
<path fill="#77998D" opacity="1.000000" stroke="none" 
	d="
M59.266327,70.944611 
	C59.252464,70.625183 59.419056,70.433403 59.726578,70.115601 
	C59.942238,70.186783 60.008896,70.376968 59.994148,70.858582 
	C59.912746,71.150002 59.454845,71.079262 59.266327,70.944611 
z"/>
</svg>